REM MD5 a55251b02f0cfeafff0579df0fb75688
FILE "Official U.S. PlayStation Magazine Demo Disc 19 (USA).bin" BINARY
  TRACK 01 MODE2/2352
    INDEX 01 00:00:00
  TRACK 02 AUDIO
    INDEX 00 30:24:52
    INDEX 01 30:26:52
  TRACK 03 AUDIO
    INDEX 00 33:51:20
    INDEX 01 33:53:20
  TRACK 04 AUDIO
    INDEX 00 34:34:23
    INDEX 01 34:36:23
  TRACK 05 AUDIO
    INDEX 00 36:30:70
    INDEX 01 36:32:70
REM LEADOUT 36:38:66
